<svg width="22" height="12" viewBox="0 0 22 12" fill="none" xmlns="http://www.w3.org/2000/svg">
<path opacity="0.8" d="M5.11328 7.28906C5.48568 7.66146 5.91536 7.84766 6.40234 7.84766C6.88932 7.84766 7.31901 7.66146 7.69141 7.28906C8.0638 6.91667 8.25 6.48698 8.25 6C8.25 5.51302 8.0638 5.08333 7.69141 4.71094C7.31901 4.33854 6.88932 4.15234 6.40234 4.15234C5.91536 4.15234 5.48568 4.33854 5.11328 4.71094C4.76953 5.08333 4.59766 5.51302 4.59766 6C4.59766 6.48698 4.76953 6.91667 5.11328 7.28906ZM11.6016 4.15234H21.0977V7.84766H19.25V11.5H15.5977V7.84766H11.6016C11.2292 8.9362 10.5703 9.82422 9.625 10.5117C8.67969 11.1706 7.60547 11.5 6.40234 11.5C4.88411 11.5 3.58073 10.9701 2.49219 9.91016C1.43229 8.82161 0.902344 7.51823 0.902344 6C0.902344 4.48177 1.43229 3.19271 2.49219 2.13281C3.58073 1.04427 4.88411 0.5 6.40234 0.5C7.60547 0.5 8.67969 0.84375 9.625 1.53125C10.5703 2.1901 11.2292 3.0638 11.6016 4.15234Z" fill="#0E4375"/>
</svg>
