<svg width="16" height="16" viewBox="0 0 16 16" fill="none" xmlns="http://www.w3.org/2000/svg">
<path opacity="0.8" d="M3.14453 10.8789C4.83464 10.1914 6.45312 9.84766 8 9.84766C9.54688 9.84766 11.151 10.1914 12.8125 10.8789C14.5026 11.5378 15.3477 12.4115 15.3477 13.5V15.3477H0.652344V13.5C0.652344 12.4115 1.48307 11.5378 3.14453 10.8789ZM10.5781 6.92578C9.86198 7.64193 9.0026 8 8 8C6.9974 8 6.13802 7.64193 5.42188 6.92578C4.70573 6.20964 4.34766 5.35026 4.34766 4.34766C4.34766 3.34505 4.70573 2.48568 5.42188 1.76953C6.13802 1.02474 6.9974 0.652344 8 0.652344C9.0026 0.652344 9.86198 1.02474 10.5781 1.76953C11.2943 2.48568 11.6523 3.34505 11.6523 4.34766C11.6523 5.35026 11.2943 6.20964 10.5781 6.92578Z" fill="#0E4375"/>
</svg>
